HIERARCHY
ROOT SpineBase
{
  OFFSET 0.000000 0.000000 0.000000
  CHANNELS 6 Xposition Yposition Zposition Zrotation Xrotation Yrotation
  JOINT SpineMid
  {
    OFFSET 0.000000 30.014396 0.000000
    CHANNELS 3 Zrotation Xrotation Yrotation
    JOINT SpineShoulder
    {
      OFFSET -0.074090 22.488250 -1.141823
      CHANNELS 3 Zrotation Xrotation Yrotation
      JOINT Neck
      {
        OFFSET -0.072910 7.539858 -0.778229
        CHANNELS 3 Zrotation Xrotation Yrotation
        JOINT Head
        {
          OFFSET 4.315094 13.820563 -3.536103
          CHANNELS 3 Zrotation Xrotation Yrotation
          End Site
          {
            OFFSET 0 0 0
          }
        }
      }
      JOINT ShoulderLeft
      {
        OFFSET -12.612240 -1.308838 -6.712438
        CHANNELS 3 Zrotation Xrotation Yrotation
        JOINT ElbowLeft
        {
          OFFSET -6.681007 -25.678605 -2.086246
          CHANNELS 3 Zrotation Xrotation Yrotation
          JOINT WristLeft
          {
            OFFSET 1.125151 -23.951321 -6.084742
            CHANNELS 3 Zrotation Xrotation Yrotation
            JOINT HandLeft
            {
              OFFSET 1.333247 -5.931106 -1.226242
              CHANNELS 3 Zrotation Xrotation Yrotation
              JOINT HandTipLeft
              {
                OFFSET 0.651042 -6.800431 -0.717567
                CHANNELS 3 Zrotation Xrotation Yrotation
                End Site
                {
                  OFFSET 0 0 0
                }
              }
              JOINT ThumbLeft
              {
                OFFSET -2.758232 -0.513749 -2.540691
                CHANNELS 3 Zrotation Xrotation Yrotation
                End Site
                {
                  OFFSET 0 0 0
                }
              }
            }
          }
        }
      }
      JOINT ShoulderRight
      {
        OFFSET 14.106237 -2.636425 5.588464
        CHANNELS 3 Zrotation Xrotation Yrotation
        JOINT ElbowRight
        {
          OFFSET 3.807720 -25.581991 5.643824
          CHANNELS 3 Zrotation Xrotation Yrotation
          JOINT WristRight
          {
            OFFSET 1.887010 -24.313453 -3.065651
            CHANNELS 3 Zrotation Xrotation Yrotation
            JOINT HandRight
            {
              OFFSET 0.667237 -8.205899 -0.642009
              CHANNELS 3 Zrotation Xrotation Yrotation
              JOINT HandTipRight
              {
                OFFSET -0.803749 -4.526420 1.572655
                CHANNELS 3 Zrotation Xrotation Yrotation
                End Site
                {
                  OFFSET 0 0 0
                }
              }
              JOINT ThumbRight
              {
                OFFSET -0.770288 -3.473266 1.507668
                CHANNELS 3 Zrotation Xrotation Yrotation
                End Site
                {
                  OFFSET 0 0 0
                }
              }
            }
          }
        }
      }
    }
  }
  JOINT HipLeft
  {
    OFFSET -6.933438 1.504883 -5.748524
    CHANNELS 3 Zrotation Xrotation Yrotation
    JOINT KneeLeft
    {
      OFFSET -3.190463 -29.558476 -3.067517
      CHANNELS 3 Zrotation Xrotation Yrotation
      JOINT AnkleLeft
      {
        OFFSET -2.011353 -39.207824 8.139702
        CHANNELS 3 Zrotation Xrotation Yrotation
        JOINT FootLeft
        {
          OFFSET 4.660343 -3.132529 -12.460906
          CHANNELS 3 Zrotation Xrotation Yrotation
          End Site
          {
            OFFSET 0 0 0
          }
        }
      }
    }
  }
  JOINT HipRight
  {
    OFFSET 6.613943 0.954741 -1.089285
    CHANNELS 3 Zrotation Xrotation Yrotation
    JOINT KneeRight
    {
      OFFSET -0.420463 -27.371731 4.838502
      CHANNELS 3 Zrotation Xrotation Yrotation
      JOINT AnkleRight
      {
        OFFSET 1.829655 -46.797338 10.510812
        CHANNELS 3 Zrotation Xrotation Yrotation
        JOINT FootRight
        {
          OFFSET 4.632394 -0.293964 -16.128695
          CHANNELS 3 Zrotation Xrotation Yrotation
          End Site
          {
            OFFSET 0 0 0
          }
        }
      }
    }
  }
}
MOTION
Frames: 10
Frame Time: 0.033333
14.049326 109.415927 305.631945 -0.000000 0.000000 -18.979209 0.000000 0.000000 18.979209 -0.000000 0.000000 0.000000 -0.000000 0.000000 0.000000 0.000000 0.000000 0.000000 -0.000000 0.000000 0.000000 -0.000000 0.000000 0.000000 -0.000000 0.000000 0.000000 -0.000000 0.000000 0.000000 0.000000 0.000000 0.000000 0.000000 0.000000 0.000000 -0.000000 0.000000 0.000000 -0.000000 0.000000 0.000000 -0.000000 0.000000 0.000000 -0.000000 0.000000 0.000000 0.000000 0.000000 0.000000 0.000000 0.000000 0.000000 0.000000 0.000000 18.979209 -0.000000 0.000000 0.000000 -0.000000 0.000000 0.000000 0.000000 0.000000 0.000000 0.000000 0.000000 18.979209 -0.000000 0.000000 0.000000 -0.000000 0.000000 0.000000 0.000000 0.000000 0.000000
13.908361 109.471156 305.461398 -0.113697 0.130776 -18.908718 0.149941 -0.086874 18.908961 -0.000000 0.000000 0.000000 -0.000000 0.000000 0.000000 0.000000 0.000000 0.000000 -0.000000 0.000000 0.000000 -0.000000 0.000000 0.000000 -2.928454 -1.487523 0.235142 1.448024 1.905295 -0.069160 0.000000 0.000000 0.000000 0.000000 0.000000 0.000000 -0.000000 0.000000 0.000000 -0.000000 0.000000 0.000000 -0.000000 0.000000 0.000000 -0.000000 0.000000 0.000000 0.000000 0.000000 0.000000 0.000000 0.000000 0.000000 0.149941 -0.086874 18.908961 -0.000000 0.000000 0.000000 -0.000000 0.000000 0.000000 0.000000 0.000000 0.000000 0.149941 -0.086874 18.908961 -1.924063 -1.409900 -0.509915 -2.033209 -11.184247 -3.696428 0.000000 0.000000 0.000000
13.780592 109.517118 305.304921 -0.215563 0.232281 -18.862692 0.279084 -0.150113 18.863494 -0.000000 0.000000 0.000000 -0.000000 0.000000 0.000000 0.000000 0.000000 0.000000 -0.000000 0.000000 0.000000 -0.000000 0.000000 0.000000 -5.318718 -2.721878 0.367654 2.679480 3.484227 -0.119007 0.000000 0.000000 0.000000 0.000000 0.000000 0.000000 -0.000000 0.000000 0.000000 -0.000000 0.000000 0.000000 -0.000000 0.000000 0.000000 -0.000000 0.000000 0.000000 0.000000 0.000000 0.000000 0.000000 0.000000 0.000000 0.279084 -0.150113 18.863494 -0.000000 0.000000 0.000000 -0.000000 0.000000 0.000000 0.000000 0.000000 0.000000 0.279084 -0.150113 18.863494 -3.838936 -2.819572 -1.062819 -6.224303 -24.332288 -9.599882 0.000000 0.000000 0.000000
13.666018 109.553813 305.162516 -0.305637 0.304569 -18.841639 -0.195445 0.385133 18.827900 0.001936 0.043190 -0.013785 0.364691 -0.775182 0.032589 0.000000 0.000000 0.000000 0.364691 -0.775182 0.032589 -0.000000 0.000000 0.000000 -7.186753 -3.703128 0.431423 3.704587 4.744310 -0.159018 0.000000 0.000000 0.000000 0.000000 0.000000 0.000000 0.364691 -0.775182 0.032589 0.163540 0.934920 0.050550 -0.000473 -0.006671 0.010796 -0.164088 -0.928069 -0.064004 0.000000 0.000000 0.000000 0.000000 0.000000 0.000000 0.387623 -0.189538 18.843092 -0.000000 0.000000 0.000000 -0.000000 0.000000 0.000000 0.000000 0.000000 0.000000 0.387623 -0.189538 18.843092 -5.619567 -4.146491 -1.618803 -12.605329 -36.166682 -17.580646 0.000000 0.000000 0.000000
13.564640 109.581241 305.034182 -0.383948 0.347681 -18.845874 -0.228750 0.468707 18.829555 -0.002252 0.064750 -0.017422 0.451877 -0.929606 0.041281 0.000000 0.000000 0.000000 0.451877 -0.929606 0.041281 -0.000000 0.000000 0.000000 -8.552089 -4.437531 0.452680 4.537400 5.696767 -0.196803 0.000000 0.000000 0.000000 0.000000 0.000000 0.000000 0.451877 -0.929606 0.041281 0.201076 1.143142 0.061279 -0.000617 -0.007948 0.013278 -0.201984 -1.134924 -0.078556 0.000000 0.000000 0.000000 0.000000 0.000000 0.000000 1.327077 -0.318142 18.813158 -0.769448 0.381608 0.041181 -0.000000 0.000000 0.000000 0.000000 0.000000 0.000000 0.475677 -0.205010 18.847890 -7.118014 -5.297620 -2.120661 -19.557607 -44.061340 -25.865971 0.000000 0.000000 0.000000
13.476457 109.599402 304.919919 -0.450522 0.361644 -18.875516 -0.246165 0.529560 18.857258 -0.008753 0.089561 -0.020578 0.521644 -1.031527 0.048516 0.000000 0.000000 0.000000 0.521644 -1.031527 0.048516 -0.775229 -0.447219 0.173139 -8.666028 -4.465237 0.345980 5.191052 6.353184 -0.237403 0.000000 0.000000 0.000000 0.000000 0.000000 0.000000 0.521644 -1.031527 0.048516 0.230194 1.299739 0.069134 -0.000758 -0.008853 0.015194 -0.231405 -1.290535 -0.089535 0.000000 0.000000 0.000000 0.000000 0.000000 0.000000 1.555316 -0.355804 18.840292 -0.906368 0.477578 0.046232 -0.000000 0.000000 0.000000 0.000000 0.000000 0.000000 0.543294 -0.196435 18.877869 -8.187646 -6.184180 -2.503402 -24.710529 -48.005552 -31.975058 0.000000 0.000000 0.000000
13.380346 109.611815 304.812995 -0.540962 0.376437 -19.004451 -0.232325 0.565195 18.984103 -0.015963 0.115595 -0.024049 0.593465 -1.101557 0.056249 0.000000 0.000000 0.000000 0.593465 -1.101557 0.056249 -1.040519 -0.630229 0.229436 -8.775429 -4.646031 0.264149 5.359351 7.332960 -0.124010 0.000000 0.000000 0.000000 0.000000 0.000000 0.000000 0.593465 -1.101557 0.056249 0.330407 1.465062 0.067703 -0.001088 -0.010091 0.020526 -0.331678 -1.454437 -0.096648 0.000000 0.000000 0.000000 0.000000 0.000000 0.000000 1.873334 -0.472106 18.975906 -1.076935 0.679326 0.044752 -0.000000 0.000000 0.000000 0.000000 0.000000 0.000000 1.534418 0.035424 19.172603 -10.525335 -7.109966 -3.161271 -31.193860 -51.445670 -39.846999 0.000000 0.000000 0.000000
13.314909 109.616912 304.734903 -0.593895 0.318170 -19.181021 -0.207869 0.571833 19.159297 -0.022957 0.155439 -0.025917 0.626261 -1.081410 0.060032 0.000000 0.000000 0.000000 0.626261 -1.081410 0.060032 -1.297408 -0.791387 0.284127 -8.373207 -4.640719 0.152662 6.918035 6.013357 -0.600196 0.000000 0.000000 0.000000 0.000000 0.000000 0.000000 0.626261 -1.081410 0.060032 0.294499 1.520079 0.076799 -0.001096 -0.010256 0.019004 -0.296044 -1.509309 -0.103598 0.000000 0.000000 0.000000 0.000000 0.000000 0.000000 2.155513 -0.479018 19.148442 -1.285187 0.841559 0.051879 -0.000000 0.000000 0.000000 0.000000 0.000000 0.000000 1.609620 0.156404 19.356676 -10.853304 -7.548635 -3.301440 -30.123100 -50.727278 -39.117901 0.000000 0.000000 0.000000
13.266936 109.608263 304.673445 -0.615964 0.211654 -19.239082 -0.186814 0.569848 19.216360 -0.039304 0.198958 -0.027857 1.289601 -0.234262 -0.007495 0.000000 0.000000 0.000000 0.644795 -1.009570 0.062411 -1.543325 -0.937062 0.336368 -7.674826 -3.857248 0.234531 8.166892 4.668385 -1.011879 0.000000 0.000000 0.000000 0.000000 0.000000 0.000000 0.644795 -1.009570 0.062411 0.158703 1.394847 0.086178 -0.000904 -0.009028 0.012130 -0.160236 -1.385539 -0.102175 0.000000 0.000000 0.000000 0.000000 0.000000 0.000000 2.111525 -0.530594 19.228403 -1.203158 0.984687 0.028860 -0.000000 0.000000 0.000000 0.000000 0.000000 0.000000 1.594323 0.318737 19.413543 -9.662299 -7.037097 -2.901198 -22.646672 -45.961103 -30.733497 0.000000 0.000000 0.000000
13.254391 109.580743 304.647978 -0.596078 0.104525 -19.272448 -0.173416 0.554823 19.249843 -0.061511 0.226742 -0.029160 1.310109 0.303006 -0.142158 0.000000 0.000000 0.000000 0.638978 -0.911624 0.062167 -1.762995 -0.960751 0.389110 -6.403152 -3.037457 0.224638 8.206695 3.922816 -1.074046 0.000000 0.000000 0.000000 0.000000 0.000000 0.000000 0.638978 -0.911624 0.062167 -0.037541 1.381553 0.112248 -0.000418 -0.007812 0.002767 0.035196 -1.373813 -0.114148 0.000000 0.000000 0.000000 0.000000 0.000000 0.000000 1.828307 -0.316648 19.254513 -1.025595 0.797432 0.027454 -0.000000 0.000000 0.000000 0.000000 0.000000 0.000000 1.681350 0.208849 19.460798 -7.406570 -5.190770 -2.083575 -11.627654 -34.189655 -17.942176 0.000000 0.000000 0.000000
